# xmcd
#
# Track frame offsets:
#	150
#	21667
#	46772
#	62952
#	80247
#	96897
#	114372
#	134060
#	152672
#	176977
#
# Disc length: 2559 seconds
#
# Revision: 1
# Processed by: cddbd v1.4PL0 Copyright (c) Steve Scherf et al.
# Submitted via: audiograbber 1.82.02
#
DISCID=9009fd0a
DTITLE=Karen Tyler - Streets and Serenades
DYEAR=1994
DGENRE=Blues
TTITLE0=Wine Stains and Tears
TTITLE1=Up To Speed
TTITLE2=Better Dreams
TTITLE3=I Ain't Lyin'
TTITLE4=Wishing For Roses
TTITLE5=Before I Learned To Cry
TTITLE6=Same Sky
TTITLE7=Hell and High Water
TTITLE8=Walk With The Gods
TTITLE9=That's Life
EXTD=
EXTT0=
EXTT1=
EXTT2=
EXTT3=
EXTT4=
EXTT5=
EXTT6=
EXTT7=
EXTT8=
EXTT9=
PLAYORDER=
